0
SECTION
2
HEADER
9
$ACADVER
1
AC1009
0
ENDSEC
0
SECTION
2
TABLES
0
ENDSEC
0
SECTION
2
ENTITIES
0
LINE
8
F1_WALL_EXTERIOR
10
0.000000
20
0.000000
30
0.0
11
720.000000
21
0.000000
31
0.0
0
LINE
8
F1_WALL_EXTERIOR
10
720.000000
20
0.000000
30
0.0
11
720.000000
21
480.000000
31
0.0
0
LINE
8
F1_WALL_EXTERIOR
10
720.000000
20
480.000000
30
0.0
11
0.000000
21
480.000000
31
0.0
0
LINE
8
F1_WALL_EXTERIOR
10
0.000000
20
480.000000
30
0.0
11
0.000000
21
0.000000
31
0.0
0
LINE
8
F1_WALL_EXTERIOR
10
720.000000
20
0.000000
30
0.0
11
1104.000000
21
0.000000
31
0.0
0
LINE
8
F1_WALL_EXTERIOR
10
1104.000000
20
0.000000
30
0.0
11
1104.000000
21
360.000000
31
0.0
0
LINE
8
F1_WALL_EXTERIOR
10
1104.000000
20
360.000000
30
0.0
11
720.000000
21
360.000000
31
0.0
0
LINE
8
F1_WALL_INTERIOR
10
216.000000
20
0.000000
30
0.0
11
216.000000
21
144.000000
31
0.0
0
LINE
8
F1_WALL_INTERIOR
10
0.000000
20
144.000000
30
0.0
11
216.000000
21
144.000000
31
0.0
0
LINE
8
F1_WALL_INTERIOR
10
0.000000
20
288.000000
30
0.0
11
360.000000
21
288.000000
31
0.0
0
LINE
8
F1_WALL_INTERIOR
10
168.000000
20
144.000000
30
0.0
11
168.000000
21
288.000000
31
0.0
0
LINE
8
F1_WALL_INTERIOR
10
240.000000
20
144.000000
30
0.0
11
240.000000
21
288.000000
31
0.0
0
LINE
8
F1_WALL_INTERIOR
10
168.000000
20
240.000000
30
0.0
11
240.000000
21
240.000000
31
0.0
0
LINE
8
F1_WALL_INTERIOR
10
216.000000
20
288.000000
30
0.0
11
216.000000
21
480.000000
31
0.0
0
LINE
8
F1_WALL_INTERIOR
10
288.000000
20
288.000000
30
0.0
11
288.000000
21
480.000000
31
0.0
0
LINE
8
F1_WALL_INTERIOR
10
288.000000
20
372.000000
30
0.0
11
360.000000
21
372.000000
31
0.0
0
LINE
8
F1_WALL_INTERIOR
10
336.000000
20
0.000000
30
0.0
11
336.000000
21
168.000000
31
0.0
0
LINE
8
F1_WALL_INTERIOR
10
456.000000
20
0.000000
30
0.0
11
456.000000
21
168.000000
31
0.0
0
LINE
8
F1_WALL_INTERIOR
10
336.000000
20
168.000000
30
0.0
11
456.000000
21
168.000000
31
0.0
0
LINE
8
F1_WALL_INTERIOR
10
504.000000
20
96.000000
30
0.0
11
576.000000
21
96.000000
31
0.0
0
LINE
8
F1_WALL_INTERIOR
10
504.000000
20
96.000000
30
0.0
11
504.000000
21
192.000000
31
0.0
0
LINE
8
F1_WALL_INTERIOR
10
576.000000
20
96.000000
30
0.0
11
576.000000
21
192.000000
31
0.0
0
LINE
8
F1_WALL_INTERIOR
10
504.000000
20
192.000000
30
0.0
11
576.000000
21
192.000000
31
0.0
0
LINE
8
F1_WALL_INTERIOR
10
576.000000
20
96.000000
30
0.0
11
720.000000
21
96.000000
31
0.0
0
LINE
8
F1_WALL_INTERIOR
10
576.000000
20
0.000000
30
0.0
11
576.000000
21
96.000000
31
0.0
0
LINE
8
F1_WALL_INTERIOR
10
432.000000
20
192.000000
30
0.0
11
504.000000
21
192.000000
31
0.0
0
LINE
8
F1_WALL_INTERIOR
10
576.000000
20
192.000000
30
0.0
11
648.000000
21
192.000000
31
0.0
0
LINE
8
F1_WALL_INTERIOR
10
456.000000
20
96.000000
30
0.0
11
504.000000
21
96.000000
31
0.0
0
LINE
8
F2_WALL_EXTERIOR
10
240.000000
20
0.000000
30
0.0
11
672.000000
21
0.000000
31
0.0
0
LINE
8
F2_WALL_EXTERIOR
10
672.000000
20
0.000000
30
0.0
11
672.000000
21
336.000000
31
0.0
0
LINE
8
F2_WALL_EXTERIOR
10
672.000000
20
336.000000
30
0.0
11
240.000000
21
336.000000
31
0.0
0
LINE
8
F2_WALL_EXTERIOR
10
240.000000
20
336.000000
30
0.0
11
240.000000
21
0.000000
31
0.0
0
LINE
8
F2_WALL_INTERIOR
10
240.000000
20
192.000000
30
0.0
11
672.000000
21
192.000000
31
0.0
0
LINE
8
F2_WALL_INTERIOR
10
408.000000
20
192.000000
30
0.0
11
408.000000
21
336.000000
31
0.0
0
LINE
8
F2_WALL_INTERIOR
10
504.000000
20
192.000000
30
0.0
11
504.000000
21
336.000000
31
0.0
0
LINE
8
F2_WALL_INTERIOR
10
240.000000
20
144.000000
30
0.0
11
336.000000
21
144.000000
31
0.0
0
LINE
8
F2_WALL_INTERIOR
10
336.000000
20
0.000000
30
0.0
11
336.000000
21
144.000000
31
0.0
0
LINE
8
F2_WALL_INTERIOR
10
456.000000
20
0.000000
30
0.0
11
456.000000
21
144.000000
31
0.0
0
LINE
8
F2_WALL_INTERIOR
10
576.000000
20
0.000000
30
0.0
11
576.000000
21
144.000000
31
0.0
0
LINE
8
F2_WALL_INTERIOR
10
576.000000
20
144.000000
30
0.0
11
672.000000
21
144.000000
31
0.0
0
LINE
8
F2_WALL_INTERIOR
10
240.000000
20
48.000000
30
0.0
11
336.000000
21
48.000000
31
0.0
0
LINE
8
F2_WALL_INTERIOR
10
576.000000
20
48.000000
30
0.0
11
672.000000
21
48.000000
31
0.0
0
LINE
8
F1_DOOR
10
264.000000
20
0.000000
30
0.0
11
312.000000
21
0.000000
31
0.0
0
LINE
8
F1_DOOR
10
216.000000
20
48.000000
30
0.0
11
216.000000
21
84.000000
31
0.0
0
LINE
8
F1_DOOR
10
168.000000
20
252.000000
30
0.0
11
168.000000
21
288.000000
31
0.0
0
LINE
8
F1_DOOR
10
240.000000
20
174.000000
30
0.0
11
240.000000
21
210.000000
31
0.0
0
LINE
8
F1_DOOR
10
240.000000
20
288.000000
30
0.0
11
276.000000
21
288.000000
31
0.0
0
LINE
8
F1_DOOR
10
216.000000
20
324.000000
30
0.0
11
216.000000
21
360.000000
31
0.0
0
LINE
8
F1_DOOR
10
288.000000
20
312.000000
30
0.0
11
288.000000
21
348.000000
31
0.0
0
LINE
8
F1_DOOR
10
288.000000
20
408.000000
30
0.0
11
288.000000
21
444.000000
31
0.0
0
LINE
8
F1_DOOR
10
522.000000
20
192.000000
30
0.0
11
558.000000
21
192.000000
31
0.0
0
LINE
8
F1_DOOR
10
630.000000
20
96.000000
30
0.0
11
666.000000
21
96.000000
31
0.0
0
LINE
8
F1_DOOR
10
576.000000
20
30.000000
30
0.0
11
576.000000
21
66.000000
31
0.0
0
LINE
8
F1_DOOR
10
720.000000
20
24.000000
30
0.0
11
720.000000
21
60.000000
31
0.0
0
LINE
8
F2_DOOR
10
288.000000
20
192.000000
30
0.0
11
324.000000
21
192.000000
31
0.0
0
LINE
8
F2_DOOR
10
588.000000
20
192.000000
30
0.0
11
624.000000
21
192.000000
31
0.0
0
LINE
8
F2_DOOR
10
270.000000
20
144.000000
30
0.0
11
306.000000
21
144.000000
31
0.0
0
LINE
8
F2_DOOR
10
606.000000
20
144.000000
30
0.0
11
642.000000
21
144.000000
31
0.0
0
LINE
8
F1_GARAGE_DOOR
10
744.000000
20
0.000000
30
0.0
11
840.000000
21
0.000000
31
0.0
0
LINE
8
F1_GARAGE_DOOR
10
864.000000
20
0.000000
30
0.0
11
960.000000
21
0.000000
31
0.0
0
LINE
8
F1_GARAGE_DOOR
10
984.000000
20
0.000000
30
0.0
11
1080.000000
21
0.000000
31
0.0
0
LINE
8
F1_SLIDER
10
504.000000
20
480.000000
30
0.0
11
432.000000
21
480.000000
31
0.0
0
LINE
8
F1_SLIDER
10
672.000000
20
480.000000
30
0.0
11
600.000000
21
480.000000
31
0.0
0
LINE
8
F1_WINDOW
10
0.000000
20
444.000000
30
0.0
11
0.000000
21
372.000000
31
0.0
0
LINE
8
F1_WINDOW
10
0.000000
20
300.000000
30
0.0
11
0.000000
21
228.000000
31
0.0
0
LINE
8
F1_WINDOW
10
0.000000
20
132.000000
30
0.0
11
0.000000
21
48.000000
31
0.0
0
LINE
8
F1_WINDOW
10
120.000000
20
480.000000
30
0.0
11
48.000000
21
480.000000
31
0.0
0
LINE
8
F1_WINDOW
10
300.000000
20
480.000000
30
0.0
11
240.000000
21
480.000000
31
0.0
0
LINE
8
F1_WINDOW
10
720.000000
20
396.000000
30
0.0
11
720.000000
21
456.000000
31
0.0
0
LINE
8
F1_WINDOW
10
48.000000
20
0.000000
30
0.0
11
120.000000
21
0.000000
31
0.0
0
LINE
8
F1_WINDOW
10
372.000000
20
0.000000
30
0.0
11
420.000000
21
0.000000
31
0.0
0
LINE
8
F1_WINDOW
10
612.000000
20
0.000000
30
0.0
11
684.000000
21
0.000000
31
0.0
0
LINE
8
F2_WINDOW
10
384.000000
20
336.000000
30
0.0
11
312.000000
21
336.000000
31
0.0
0
LINE
8
F2_WINDOW
10
624.000000
20
336.000000
30
0.0
11
552.000000
21
336.000000
31
0.0
0
LINE
8
F2_WINDOW
10
240.000000
20
144.000000
30
0.0
11
240.000000
21
96.000000
31
0.0
0
LINE
8
F2_WINDOW
10
672.000000
20
60.000000
30
0.0
11
672.000000
21
108.000000
31
0.0
0
LINE
8
F2_WINDOW
10
360.000000
20
0.000000
30
0.0
11
408.000000
21
0.000000
31
0.0
0
LINE
8
F2_WINDOW
10
480.000000
20
0.000000
30
0.0
11
528.000000
21
0.000000
31
0.0
0
TEXT
8
F1_ROOM_TEXT
10
108.000000
20
72.000000
30
0.0
40
2.500
1
Theater
0
TEXT
8
F1_ROOM_TEXT
10
276.000000
20
60.000000
30
0.0
40
2.500
1
Foyer
0
TEXT
8
F1_ROOM_TEXT
10
396.000000
20
84.000000
30
0.0
40
2.500
1
Stair
0
TEXT
8
F1_ROOM_TEXT
10
84.000000
20
216.000000
30
0.0
40
2.500
1
Bedroom 2
0
TEXT
8
F1_ROOM_TEXT
10
204.000000
20
192.000000
30
0.0
40
2.500
1
Bath 2
0
TEXT
8
F1_ROOM_TEXT
10
204.000000
20
264.000000
30
0.0
40
2.500
1
Guest Hall
0
TEXT
8
F1_ROOM_TEXT
10
108.000000
20
384.000000
30
0.0
40
2.500
1
Primary Bedroom
0
TEXT
8
F1_ROOM_TEXT
10
252.000000
20
384.000000
30
0.0
40
2.500
1
Primary Suite Hall
0
TEXT
8
F1_ROOM_TEXT
10
324.000000
20
330.000000
30
0.0
40
2.500
1
Primary WIC
0
TEXT
8
F1_ROOM_TEXT
10
324.000000
20
426.000000
30
0.0
40
2.500
1
Primary Bath
0
TEXT
8
F1_ROOM_TEXT
10
288.000000
20
204.000000
30
0.0
40
2.500
1
Central Hall
0
TEXT
8
F1_ROOM_TEXT
10
540.000000
20
144.000000
30
0.0
40
2.500
1
Pantry
0
TEXT
8
F1_ROOM_TEXT
10
648.000000
20
48.000000
30
0.0
40
2.500
1
Mud / Laundry
0
TEXT
8
F1_ROOM_TEXT
10
648.000000
20
144.000000
30
0.0
40
2.500
1
Service Hall
0
TEXT
8
F1_ROOM_TEXT
10
552.000000
20
252.000000
30
0.0
40
2.500
1
Kitchen
0
TEXT
8
F1_ROOM_TEXT
10
456.000000
20
396.000000
30
0.0
40
2.500
1
Living
0
TEXT
8
F1_ROOM_TEXT
10
636.000000
20
396.000000
30
0.0
40
2.500
1
Dining
0
TEXT
8
F1_ROOM_TEXT
10
516.000000
20
48.000000
30
0.0
40
2.500
1
Mechanical / Storage
0
TEXT
8
F1_ROOM_TEXT
10
360.000000
20
228.000000
30
0.0
40
2.500
1
Connector Hall
0
TEXT
8
F2_ROOM_TEXT
10
324.000000
20
264.000000
30
0.0
40
2.500
1
Bedroom 3
0
TEXT
8
F2_ROOM_TEXT
10
288.000000
20
96.000000
30
0.0
40
2.500
1
Bath 3
0
TEXT
8
F2_ROOM_TEXT
10
396.000000
20
72.000000
30
0.0
40
2.500
1
Stair / Landing
0
TEXT
8
F2_ROOM_TEXT
10
516.000000
20
72.000000
30
0.0
40
2.500
1
Loft
0
TEXT
8
F2_ROOM_TEXT
10
456.000000
20
168.000000
30
0.0
40
2.500
1
Upper Hall
0
TEXT
8
F2_ROOM_TEXT
10
456.000000
20
264.000000
30
0.0
40
2.500
1
Reading Nook
0
TEXT
8
F2_ROOM_TEXT
10
588.000000
20
264.000000
30
0.0
40
2.500
1
Bedroom 4
0
TEXT
8
F2_ROOM_TEXT
10
624.000000
20
96.000000
30
0.0
40
2.500
1
Bath 4
0
TEXT
8
F2_ROOM_TEXT
10
288.000000
20
24.000000
30
0.0
40
2.500
1
Linen / Storage L
0
TEXT
8
F2_ROOM_TEXT
10
624.000000
20
24.000000
30
0.0
40
2.500
1
Linen / Storage R
0
ENDSEC
0
EOF
